# xmcd CD database file
#
# Track frame offsets:
#	150
#	23466
#	52550
#	76960
#	111007
#	146631
#	170902
#	185328
#	214883
#	245052
#	266944
#
# Disc length: 3582 seconds
#
# Revision: 0
# Processed by: cddbd v1.5.1PL0 Copyright (c) Steve Scherf et al.
# Submitted via: CDex 1.51
#
DISCID=970dfc0b
DTITLE=Dylan Thomas Vance And Griff Bear - Live At Biddy Mcgraw's
DYEAR=2004
DGENRE=Blues
TTITLE0=I Saw The Light
TTITLE1=Let The Train Blow The Whistle
TTITLE2=Stones In My Passway
TTITLE3=Redemption
TTITLE4=Go Jake
TTITLE5=Buckets Of Rain
TTITLE6=It's A Big Old Goofy World
TTITLE7=9 Lb. Hammer
TTITLE8=Rollin' And Tumblin'
TTITLE9=Sunset In Oregon
TTITLE10=Dunno
EXTD=YEAR: 2004
EXTT0=
EXTT1=
EXTT2=
EXTT3=
EXTT4=
EXTT5=
EXTT6=
EXTT7=
EXTT8=
EXTT9=
EXTT10=
PLAYORDER=
